HIERARCHY
ROOT Hips
{
	OFFSET 0.00000 0.00000 0.00000
	CHANNELS 6 Xposition Yposition Zposition Yrotation Zrotation Xrotation 
	JOINT Lumbar
	{
		OFFSET 0 0 0
		CHANNELS 3 Zrotation Xrotation Yrotation
		JOINT Neck
		{
			OFFSET 0.00 0.2701 0.00
			CHANNELS 3 Zrotation Xrotation Yrotation
			End Site
			{
				OFFSET 0.00 0.1379 0.00
			}
		}
		JOINT RightShoulder
		{
			OFFSET 0.0119 0.2289 0.1181
			CHANNELS 3 Zrotation Xrotation Yrotation
			JOINT RightElbow
			{
				OFFSET 0.00 -0.1475 0.00
				CHANNELS 2 Zrotation Yrotation
				JOINT RightWrist
				{
					OFFSET 0.00 -0.1605 0.00
					CHANNELS 2 Zrotation Xrotation
					End Site
					{
						OFFSET 0.0040 -0.1068 0.0006
					}
				}
			}
		}
		JOINT LeftShoulder
		{
			OFFSET 0.0119 0.2289 -0.1181
			CHANNELS 3 Zrotation Xrotation Yrotation
			JOINT LeftElbow
			{
				OFFSET 0.00 -0.1475 0.00
				CHANNELS 2 Zrotation Yrotation
				JOINT LeftWrist
				{
					OFFSET 0.00 -0.1605 0.00
					CHANNELS 2 Zrotation Xrotation
					End Site
					{
						OFFSET 0.0040 -0.1068 -0.0006
					}
				}
			}
		}
	}
	JOINT RightHip
	{
		OFFSET 0.0316 -0.0424 0.0458
		CHANNELS 3 Zrotation Xrotation Yrotation
		JOINT RightKnee
		{
			OFFSET 0.00 -0.2438 0.00
			CHANNELS 1 Zrotation
			JOINT RightAnkle
			{
				OFFSET 0.00 -0.2449 0.00
				CHANNELS 3 Zrotation Xrotation Yrotation
				End Site
				{
					OFFSET 0.1237 -0.0542 0.0051
				}
			}
		}
	}
	JOINT LeftHip
	{
		OFFSET 0.0316 -0.0424 -0.0458
		CHANNELS 3 Zrotation Xrotation Yrotation
		JOINT LeftKnee
		{
			OFFSET 0.00 -0.2438 0.00
			CHANNELS 1 Zrotation
			JOINT LeftAnkle
			{
				OFFSET 0.00 -0.2449 0.00
				CHANNELS 3 Zrotation Xrotation Yrotation
				End Site
				{
					OFFSET 0.1237 -0.0542 -0.0051
				}
			}
		}
	}
}
MOTION
Frames: 34
Frame Time: 0.02
8e-05 -0.0005 0.00763 15.49454 -22.47858 -3.79551 44.97959 1.18645 -9.12466 -7.4062 -4.27427 -0.29333 -25.77765 -13.91288 4.07136 42.04049 91.12484 7.49446 -0.52604 -28.74467 17.83106 -1.27986 43.87937 -85.32657 12.13562 2.29024 35.17829 3.71311 -8.7127 -21.25129 -7.9765 -5.00995 -3.32393 34.70078 10.55041 -4.25473 -19.93946 -11.82481 5.79656 4.03893
0.00099 -0.00043 0.00812 15.45323 -22.30568 -3.54704 44.42875 1.27008 -8.6324 -7.32931 -4.2681 -0.31366 -25.55074 -14.06026 3.92507 41.65086 90.95128 7.67899 -0.58641 -28.73838 17.52016 -0.86816 43.22592 -87.42916 13.23239 2.04997 34.72715 3.50124 -9.35099 -21.13017 -7.88567 -4.89185 -3.26316 35.28019 10.61199 -3.1102 -21.52349 -11.68646 5.71721 3.98741
0.0019 -0.00035 0.00861 15.41188 -22.13382 -3.29891 43.87953 1.35354 -8.14061 -7.25247 -4.2616 -0.33393 -25.32388 -14.20705 3.77814 41.26097 90.78107 7.8637 -0.64602 -28.7325 17.21015 -0.45809 42.57445 -89.52295 14.32529 1.81078 34.27767 3.28979 -9.98648 -21.00932 -7.79515 -4.77417 -3.2026 35.86038 10.6726 -1.96941 -23.10482 -11.54837 5.63789 3.93591
0.00281 -0.00028 0.0091 15.37066 -21.96154 -3.05113 43.33039 1.43692 -7.64969 -7.1758 -4.25541 -0.35419 -25.09756 -14.35395 3.63211 40.87228 90.6086 8.04781 -0.70608 -28.72628 16.9002 -0.04772 41.92299 -91.61861 15.41858 1.57132 33.82799 3.07853 -10.62267 -20.88856 -7.7046 -4.65645 -3.14202 36.43842 10.73385 -0.8285 -24.68443 -11.41042 5.55875 3.88453
0.00372 -0.00021 0.00959 15.32954 -21.78801 -2.80321 42.77961 1.52044 -7.15872 -7.09913 -4.24968 -0.37452 -24.87148 -14.50152 3.4872 40.48446 90.43145 8.23142 -0.76719 -28.71953 16.58941 0.36443 41.26964 -93.72413 16.516 1.33063 33.37649 2.86694 -11.26197 -20.76753 -7.61375 -4.53826 -3.08122 37.01471 10.79639 0.31639 -26.26561 -11.2723 5.47967 3.83319
0.00464 -0.00013 0.01007 15.28771 -21.61964 -2.55466 42.23365 1.60378 -6.66525 -7.02194 -4.24155 -0.39466 -24.64301 -14.64666 3.33608 40.09028 90.2757 8.41837 -0.82369 -28.71551 16.28106 0.77009 40.62217 -95.79331 17.59936 1.09461 32.9312 2.65584 -11.88941 -20.64705 -7.52392 -4.42167 -3.02119 37.60302 10.85298 1.44861 -27.847 -11.13426 5.39985 3.78138
0.00554 -6e-05 0.01056 15.24734 -21.44117 -2.3076 41.67876 1.68737 -6.17732 -6.94593 -4.23826 -0.41515 -24.41954 -14.7965 3.19743 39.7092 90.07781 8.59858 -0.88919 -28.70589 15.9681 1.18834 39.96346 -97.9326 18.70956 0.84953 32.47414 2.44395 -12.53999 -20.52568 -7.43213 -4.30201 -2.95966 38.16655 10.92138 2.60456 -29.42699 -10.99621 5.32159 3.73055
0.00645 1e-05 0.01104 15.20566 -21.27186 -2.05925 41.13184 1.77075 -5.68434 -6.86875 -4.23049 -0.43533 -24.19154 -14.94205 3.04763 39.31626 89.91739 8.78466 -0.94677 -28.70165 15.65946 1.59503 39.31534 -100.00859 19.79547 0.61263 32.02753 2.23283 -13.16932 -20.40499 -7.34215 -4.18517 -2.89952 38.7528 10.97906 3.73955 -31.00686 -10.85818 5.24192 3.67883
0.00738 9e-05 0.01151 15.16217 -21.11434 -1.80884 40.59546 1.85385 -5.18458 -6.7904 -4.21728 -0.4551 -23.95748 -15.0822 2.88255 38.9075 89.80875 8.97947 -0.9931 -28.70319 15.35568 1.98748 38.67898 -102.00227 20.85026 0.38641 31.59514 2.02235 -13.77244 -20.28563 -7.25432 -4.07178 -2.84106 39.36808 11.02282 4.84571 -32.59322 -10.72003 5.16034 3.62591
0.00823 0.00014 0.01208 15.12847 -20.89078 -1.56881 40.00079 1.93848 -4.72193 -6.71957 -4.23549 -0.4771 -23.75669 -15.25296 2.80041 38.58577 89.4202 9.12876 -1.09941 -28.66911 15.02268 2.46153 37.9714 -104.45471 22.07984 0.1008 31.08527 1.80727 -14.52565 -20.16008 -7.15396 -3.93854 -2.77284 39.8202 11.14421 6.10811 -34.16228 -10.58213 5.08916 3.57955
0.00924 0.00026 0.01241 15.07455 -20.80535 -1.30785 39.52764 2.01993 -4.18236 -6.63236 -4.18737 -0.49448 -23.48683 -15.35942 2.54657 38.08318 89.61039 9.371 -1.08229 -28.71163 14.75218 2.76367 37.4164 -105.94881 22.94335 -0.06085 30.73612 1.60254 -14.96267 -20.0467 -7.08014 -3.84719 -2.72527 40.61376 11.10348 7.047 -35.75468 -10.44401 4.99645 3.51962
0.01067 0.00059 0.01208 14.96043 -21.11289 -0.9808 39.40342 2.09226 -3.41784 -6.50378 -3.9555 -0.49839 -23.01622 -15.28543 1.7904 37.05686 91.50203 9.8965 -0.69665 -28.95457 14.64768 2.58797 37.26439 -104.70786 22.76971 0.13223 30.85455 1.42099 -14.52098 -19.97417 -7.07872 -3.87149 -2.73437 42.37732 10.59893 7.03745 -37.52015 -10.30264 4.84091 3.41983
0.01227 0.00099 0.0115 14.82654 -21.55661 -0.63446 39.39851 2.16144 -2.57869 -6.35803 -3.65742 -0.49778 -22.47851 -15.14758 0.86819 35.85468 93.95349 10.51018 -0.19216 -29.27618 14.60689 2.24131 37.26807 -102.52371 22.23421 0.44713 31.12927 1.25076 -13.76481 -19.91251 -7.10392 -3.93758 -2.76412 44.47749 9.9348 6.71298 -39.2883 -10.16159 4.66456 3.30695
0.01382 0.00136 0.01102 14.70519 -21.92882 -0.3024 39.3287 2.23236 -1.78262 -6.21786 -3.39067 -0.49976 -21.9786 -15.04158 0.04152 34.74999 96.0752 11.06502 0.23788 -29.56826 14.54061 1.97618 37.21131 -100.84044 21.88607 0.69674 31.31531 1.07885 -13.15856 -19.84095 -7.11731 -3.98424 -2.78451 46.40225 9.3564 6.574 -40.9848 -10.02202 4.49999 3.20165
0.01523 0.00173 0.01059 14.57018 -22.34164 0.05354 39.30355 2.30213 -0.94741 -6.08727 -3.11822 -0.49956 -21.44699 -14.92362 -0.87276 33.56793 98.51747 11.69902 0.75259 -29.83452 14.46009 1.6923 37.11312 -98.85195 21.44189 0.98838 31.57685 0.89258 -12.51813 -19.79019 -7.1299 -4.03333 -2.80516 48.42303 8.72306 6.26102 -42.98101 -9.8753 4.32502 3.08913
0.01699 0.00212 0.01 14.45719 -22.70252 0.36363 39.21447 2.37337 -0.17641 -5.93237 -2.84235 -0.50274 -20.96642 -14.81529 -1.64079 32.50892 100.42302 12.18936 1.12143 -30.17284 14.42402 1.40975 37.13585 -97.27354 21.11019 1.22152 31.71736 0.73861 -11.87932 -19.69885 -7.15004 -4.08664 -2.82976 50.3228 8.16489 6.22889 -44.35065 -9.74388 4.16747 2.98894
0.01957 0.00258 0.00904 14.42457 -22.88276 0.54788 38.91261 2.4507 0.40131 -5.71759 -2.57038 -0.51721 -20.63543 -14.75078 -1.99026 31.80334 100.72311 12.25806 1.03736 -30.6935 14.49748 1.14938 37.47329 -97.08034 21.19452 1.2612 31.49121 0.67368 -11.27928 -19.49098 -7.18826 -4.14672 -2.86349 51.81112 7.86684 7.10927 -44.01602 -9.65176 4.05727 2.92282
0.02252 0.00307 0.00792 14.41178 -23.00658 0.68418 38.54379 2.52928 0.91106 -5.47879 -2.29804 -0.53509 -20.35954 -14.69793 -2.18185 31.23351 100.46185 12.17967 0.80575 -31.28335 14.61304 0.90062 37.92338 -97.32875 21.40152 1.23806 31.13633 0.64053 -10.6989 -19.24206 -7.23255 -4.20866 -2.89989 53.16456 7.64786 8.27169 -43.04709 -9.57541 3.96643 2.87018
0.02536 0.00354 0.00687 14.3806 -23.15885 0.83897 38.2099 2.60656 1.45081 -5.24843 -2.0275 -0.55085 -20.06359 -14.63871 -2.42876 30.62048 100.44748 12.17086 0.6561 -31.83991 14.70767 0.66198 38.30961 -97.36068 21.54139 1.24517 30.83706 0.59089 -10.1387 -19.01332 -7.27149 -4.26613 -2.93281 54.57684 7.38337 9.26624 -42.34944 -9.49395 3.87051 2.81347
0.02797 0.00405 0.00585 14.3894 -23.30445 1.00881 37.86025 2.68721 1.99824 -5.02615 -1.74687 -0.56883 -19.74444 -14.58168 -2.75109 29.92201 100.48398 12.15385 0.44979 -32.40741 14.8119 0.3526 38.75519 -97.42572 21.71659 1.24977 30.55712 0.54962 -9.44825 -18.77918 -7.32195 -4.34007 -2.97582 56.01297 7.15213 10.41893 -41.71813 -9.40451 3.75806 2.74759
0.03114 0.00449 0.00472 14.31852 -23.44821 1.13509 37.52716 2.7607 2.5109 -4.78381 -1.48914 -0.58308 -19.48736 -14.52379 -2.87634 29.43759 100.27817 12.11751 0.32223 -32.967 14.90556 0.19524 39.10133 -97.53971 21.85213 1.24255 30.20224 0.49917 -9.0333 -18.54559 -7.34996 -4.37998 -2.99844 57.36084 6.87453 11.31137 -40.80483 -9.33458 3.68504 2.70424
0.03561 0.00474 0.00336 14.0342 -23.60484 1.1577 37.24603 2.81793 2.95776 -4.47415 -1.28562 -0.58612 -19.39196 -14.46126 -2.49596 29.50183 99.49901 12.06574 0.47085 -33.49152 14.95674 0.46032 39.14874 -97.68091 21.85134 1.22028 29.68873 0.40769 -9.41463 -18.33074 -7.31058 -4.32206 -2.96191 58.51275 6.43317 11.43505 -39.20903 -9.32226 3.71535 2.71946
0.04064 0.00494 0.00189 13.6667 -23.76007 1.13719 36.98565 2.86698 3.36886 -4.1495 -1.10723 -0.58534 -19.35778 -14.39839 -1.92067 29.78149 98.49888 11.99862 0.69906 -34.00415 14.99571 0.87902 39.09046 -97.8621 21.80896 1.18589 29.10035 0.30699 -10.06624 -18.11677 -7.2491 -4.23025 -2.90508 59.5747 5.94647 11.28578 -37.36253 -9.32793 3.78493 2.75704
0.04548 0.00516 0.00046 13.33018 -23.91258 1.13302 36.72119 2.91755 3.78729 -3.84224 -0.92363 -0.58639 -19.29212 -14.33471 -1.43532 29.96678 97.62617 11.93699 0.87531 -34.52001 15.04233 1.22317 39.07794 -98.0281 21.78366 1.15672 28.53436 0.21599 -10.56972 -17.89721 -7.20005 -4.156 -2.8589 60.66813 5.49185 11.24992 -35.66927 -9.31994 3.83717 2.7847
0.05008 0.00539 -0.00093 13.02419 -24.07754 1.14063 36.42988 2.97833 4.24189 -3.48553 -0.71366 -0.58713 -19.23955 -14.27254 -0.94367 30.13321 96.6261 11.87721 1.11291 -35.04941 15.08301 1.5828 39.08034 -98.19121 21.76464 1.1323 28.01294 0.10406 -11.18199 -17.69681 -7.14072 -4.07279 -2.80683 61.80221 4.99068 11.26606 -33.78717 -9.33429 3.88796 2.8118
0.05531 0.0056 -0.00244 12.63331 -24.21676 1.11445 36.20279 3.01475 4.61251 -3.23354 -0.56472 -0.58758 -19.17884 -14.21067 -0.41481 30.39908 95.83873 11.811 1.24386 -35.54447 15.13084 1.95256 39.02344 -98.37061 21.72796 1.08884 27.38279 0.03161 -11.62977 -17.4589 -7.09798 -4.0001 -2.76217 62.82515 4.57562 11.10862 -32.24806 -9.30788 3.95084 2.84522
0.06208 0.00574 -0.00422 12.04041 -24.28638 1.00252 36.12617 2.99524 4.76786 -3.23285 -0.57766 -0.58816 -19.03526 -14.11871 0.11586 30.79518 95.76038 11.73925 1.05872 -35.96535 15.21652 2.26129 38.84054 -98.53229 21.59309 1.06034 26.47073 0.08297 -11.57415 -17.10671 -7.10262 -3.96513 -2.74291 63.6204 4.40098 10.51133 -31.71257 -9.14941 4.03728 2.89004
0.06949 0.00586 -0.00614 11.36354 -24.32981 0.85895 36.11756 2.94949 4.83802 -3.34651 -0.65146 -0.58855 -18.8896 -14.03309 0.68584 31.30068 95.89573 11.66128 0.76494 -36.34675 15.30698 2.58435 38.59786 -98.71854 21.45172 1.00408 25.45364 0.17163 -11.34089 -16.72129 -7.12566 -3.9418 -2.73179 64.29616 4.31549 9.75328 -31.5348 -8.95183 4.13428 2.94036
0.07666 0.00601 -0.00802 10.71596 -24.38526 0.73194 36.09278 2.90996 4.94337 -3.43443 -0.69745 -0.58899 -18.77439 -13.96449 1.27272 31.81512 95.88934 11.58059 0.52264 -36.73632 15.38483 2.93468 38.37537 -98.92385 21.35275 0.91504 24.48377 0.23518 -11.17723 -16.35514 -7.14244 -3.91288 -2.71696 64.99063 4.19465 9.08433 -31.19996 -8.78223 4.22675 2.98862
0.08362 0.00607 -0.00981 10.09913 -24.44176 0.59381 36.00764 2.89528 5.06557 -3.40869 -0.7441 -0.58944 -18.53675 -13.81066 1.72211 32.08818 96.05562 11.52032 0.27287 -37.17354 15.50546 3.14826 38.18258 -98.99586 21.08882 1.00603 23.50854 0.33397 -11.06819 -15.96162 -7.14852 -3.88409 -2.7015 65.83498 4.05151 8.33502 -30.83372 -8.57101 4.3203 3.03631
0.09117 0.00633 -0.01181 9.40417 -24.48784 0.47234 36.06265 2.8214 5.12885 -3.65006 -0.80459 -0.58989 -18.55288 -13.83737 2.46168 32.88881 95.92555 11.41926 0.01339 -37.49381 15.53939 3.64745 37.91026 -99.35997 21.16376 0.72963 22.52657 0.36698 -10.80192 -15.62947 -7.18289 -3.85817 -2.68955 66.33642 3.97528 7.72259 -30.61999 -8.43589 4.41257 3.08558
0.10026 0.0071 -0.01432 8.47266 -24.52959 0.40091 36.5008 2.6019 5.08566 -4.57574 -0.87825 -0.59037 -19.26839 -14.34829 4.01785 35.10429 94.84354 11.18201 -0.25982 -37.57399 15.32374 4.93424 37.47837 -100.43962 22.20698 -0.67659 21.50376 0.22057 -10.12493 -15.37341 -7.27915 -3.83838 -2.68555 65.95078 4.07249 7.48909 -30.75203 -8.53 4.50768 3.14332
0.10993 0.0081 -0.01702 7.47306 -24.55874 0.34819 37.07532 2.32177 4.98011 -5.77106 -0.96503 -0.59086 -20.23856 -15.04315 5.85923 37.84838 93.47171 10.90891 -0.53707 -37.52485 15.02277 6.50494 36.96309 -101.82389 23.58513 -2.43016 20.48943 0.00451 -9.2986 -15.20148 -7.40534 -3.82114 -2.6849 65.21907 4.23168 7.40478 -31.02396 -8.70039 4.59963 3.20155
0.11931 0.00905 -0.01965 6.53284 -24.58146 0.28965 37.57876 2.06177 4.87951 -6.85967 -1.05292 -0.59135 -21.09414 -15.66206 7.55243 40.35963 92.28776 10.66848 -0.80378 -37.48619 14.76639 7.94559 36.45349 -103.12944 24.79075 -3.94273 19.50009 -0.18693 -8.55188 -15.05477 -7.52591 -3.80211 -2.68262 64.62596 4.35658 7.28202 -31.22562 -8.82929 4.68648 3.25558
